<?xml version="1.0" encoding="UTF-8" standalone="no"?>
<svg xmlns="http://www.w3.org/2000/svg"
     xmlns:inkscape="http://www.inkscape.org/namespaces/inkscape"
     viewBox="0 0 100 100"
     width="48"
     height="48">
	<g inkscape:label="marker">
		<path style="fill:#214478"
		      d="m 49.979044,4.9999801 -25.14261,13.0024999 0.0209,25.9723 25.39727,51.02524 24.908962,-51.05784 -0.02105,-25.9723 -25.16348,-12.9698999 z m 0.0209,3.9641 21.416992,11.0573999 v 22.1146 L 49.999944,53.19352 28.583054,42.13608 v -22.1146 z"
		      inkscape:label="marker_pin"/>
		<path style="fill:#ffffff"
		      d="m 49.999944,8.96408 -21.41689,11.0574 v 22.1146 L 49.999944,53.19352 71.416936,42.13608 V 20.02148 L 49.999944,8.96408 v 0 0"
		      inkscape:label="marker_bg"/>
	</g>
	<path d="m 57.463787,23.216279 c -0.049,-0.336004 0.18,-0.648224 0.512,-0.698321 0.3315,-0.04959 0.64,0.182676 0.6895,0.517668 0.049,0.336004 -0.18,0.648225 -0.5115,0.698322 -0.3325,0.0501 -0.641,-0.181665 -0.69,-0.517669 m 0.348,-2.825165 c -1.6475,0.01822 -2.457,0.898203 -3.359,2.108627 -1.0745,1.440161 -0.997,1.249388 -2.83,1.526692 -7.356501,0.780298 -10.007501,4.384749 -11.855001,8.28877 2.812,-1.463944 4.0095,-1.568186 6.289,-1.613729 3.358,-0.06781 4.383,-0.998903 7.257001,-2.965842 -3.004001,4.942901 -5.346001,4.192965 -8.017501,4.455594 -2.884,0.283377 -4.052,1.018132 -6.490001,2.29181 l -1.0465,2.336846 c -0.2845,0.556127 0.16,1.151724 0.722,1.087964 1.031001,-0.118411 1.859001,-0.362317 2.638001,-0.591043 3.6325,-1.067723 3.668,0.08653 6.6225,0.195834 v 1.402209 h -0.636 c -0.4015,0 -0.7295,0.33145 -0.7295,0.738298 0,0.405836 0.328,0.737791 0.7295,0.737791 h 3.4065 c 0.4015,0 0.7295,-0.331449 0.7295,-0.737791 0,-0.405836 -0.328,-0.737792 -0.7295,-0.737792 h -1.3065 v -1.474065 c 2.245501,-0.269714 4.229001,-1.088977 6.023001,-2.435016 3.18,-2.385426 5.764,-5.012733 4.5575,-9.028587 -0.242,-0.806611 0.3865,-1.079867 0.6935,-1.688622 l 2.049,-0.59003 c 0.166,-0.04807 0.2005,-0.317281 0.028,-0.412921 l -1.954,-1.086446 c -0.368,-1.160833 -1.64,-1.821202 -2.7915,-1.808551 z"
	      inkscape:label="bird"/>
</svg>
