<?xml version="1.0" encoding="UTF-8"?>
<svg width="255px" height="94px" viewBox="0 0 255 94" version="1.1" xmlns="http://www.w3.org/2000/svg" xmlns:xlink="http://www.w3.org/1999/xlink">
    <!-- Generator: Sketch 42 (36781) - http://www.bohemiancoding.com/sketch -->
    <title>UK Header</title>
    <desc>Created with Sketch.</desc>
    <defs>
        <radialGradient cx="-0.877557579%" cy="-9.04386717%" fx="-0.877557579%" fy="-9.04386717%" r="126.516176%" id="radialGradient-1">
            <stop stop-color="#009BBD" offset="0%"></stop>
            <stop stop-color="#009BBD" offset="17.35%"></stop>
            <stop stop-color="#1B296B" offset="100%"></stop>
        </radialGradient>
    </defs>
    <g id="Symbols" stroke="none" stroke-width="1" fill="none" fill-rule="evenodd">
        <g id="UK-Header" transform="translate(-19.000000, -15.000000)">
            <g>
                <rect id="Rectangle-8" fill="#FFFFFF" x="0" y="0" width="1440" height="126"></rect>
                <g id="Group-10" transform="translate(19.000000, 15.000000)" fill-rule="nonzero">
                    <g id="UoN_Logo_RGB">
                        <g id="New_Logo">
                            <g id="Uni_of_Notts" transform="translate(109.825149, 24.610173)" fill="#1B296B">
                                <path d="M36.4740403,67.7533119 L36.1717693,66.8994895 C34.9626851,67.3012883 34.1566289,67.4519628 33.5520868,67.4519628 C31.889596,67.4519628 30.9827829,65.9954424 30.9827829,63.3335258 C30.9827829,60.8725085 31.9399745,59.4662129 33.7536009,59.4662129 C34.358143,59.4662129 35.1138206,59.5666626 36.0206338,59.767562 L36.2221478,58.9137397 C35.3153346,58.6626155 34.4085215,58.4617161 33.7032223,58.4617161 C31.1339184,58.4617161 29.7736987,60.2195856 29.7736987,63.4842003 C29.7736987,66.6483653 31.1339184,68.5066845 33.4009513,68.5066845 C34.2070074,68.5066845 35.3153346,68.2053354 36.4740403,67.7533119 L36.4740403,67.7533119 Z" id="Shape"></path>
                                <polygon id="Shape" points="45.3406579 68.3057851 45.3406579 58.6123906 44.1819522 58.6123906 44.1819522 62.7810525 39.4967509 62.7810525 39.4967509 58.6123906 38.3380452 58.6123906 38.3380452 68.3057851 39.4967509 68.3057851 39.4967509 63.6348748 44.1819522 63.6348748 44.1819522 68.3057851"></polygon>
                                <polygon id="Shape" points="48.8671535 68.3057851 48.8671535 58.6123906 47.7084478 58.6123906 47.7084478 68.3057851"></polygon>
                                <polygon id="Shape" points="58.1871776 68.3057851 58.1871776 58.6123906 57.2299859 58.6123906 57.2299859 67.2008386 52.8470557 58.6123906 51.1845649 58.6123906 51.1845649 68.3057851 52.1921351 68.3057851 52.1921351 59.8177868 56.5246868 68.3057851"></polygon>
                                <path d="M64.3333557,58.6123906 L63.0235144,58.6123906 L59.5473973,68.3057851 L60.605346,68.3057851 L61.5625377,65.6940933 L65.7439539,65.6940933 L66.7011456,68.3057851 L67.9102298,68.3057851 L64.3333557,58.6123906 Z M61.8648087,64.7900462 L63.6280565,59.6168875 L65.4416829,64.7900462 L61.8648087,64.7900462 Z" id="Shape"></path>
                                <polygon id="Shape" points="92.6460776 68.3057851 92.293428 58.6123906 90.6309372 58.6123906 87.8601192 67.3515131 85.0389228 58.6123906 83.376432 58.6123906 83.0237824 68.3057851 84.1321096 68.3057851 84.2832451 59.7173371 87.0540631 68.3057851 88.4646614 68.3057851 91.2858578 59.7173371 91.4369934 68.3057851"></polygon>
                                <path d="M98.7922556,58.6123906 L97.4824144,58.6123906 L94.0566758,68.3057851 L95.1146245,68.3057851 L96.0214377,65.6940933 L100.202854,65.6940933 L101.160046,68.3057851 L102.36913,68.3057851 L98.7922556,58.6123906 Z M96.2733302,64.7900462 L98.036578,59.5666626 L99.8502043,64.7900462 L96.2733302,64.7900462 Z" id="Shape"></path>
                                <polygon id="Shape" points="109.270985 68.3057851 109.270985 67.4519628 104.938434 67.4519628 104.938434 58.6123906 103.779728 58.6123906 103.779728 68.3057851"></polygon>
                                <path d="M114.913378,58.6123906 L113.603537,58.6123906 L110.177799,68.3057851 L111.235747,68.3057851 L112.14256,65.6940933 L116.323977,65.6940933 L117.281168,68.3057851 L118.490253,68.3057851 L114.913378,58.6123906 Z M112.394453,64.7900462 L114.157701,59.5666626 L115.971327,64.7900462 L112.394453,64.7900462 Z" id="Shape"></path>
                                <polygon id="Shape" points="125.593622 58.6123906 124.384538 58.6123906 121.815234 63.0824016 119.195552 58.6123906 117.835332 58.6123906 121.160314 64.0366736 121.160314 68.3057851 122.319019 68.3057851 122.319019 64.0366736"></polygon>
                                <path d="M132.042071,65.5434188 C132.042071,64.0868984 131.487908,63.4339754 129.37201,62.7810525 C127.558384,62.2285792 127.306492,61.977455 127.306492,61.0734079 C127.306492,60.0186862 128.062169,59.4662129 129.120118,59.4662129 C129.72466,59.4662129 130.480338,59.5666626 131.437529,59.767562 L131.639043,58.9137397 C130.73223,58.6626155 129.875796,58.5119409 129.069739,58.5119409 C127.306492,58.5119409 126.147786,59.5164378 126.147786,61.1738576 C126.147786,63.4339754 128.36444,63.5344251 129.976553,64.2375729 C130.73223,64.5891468 130.933744,64.9407207 130.933744,65.6438685 C130.933744,66.6985902 130.026931,67.401738 128.767468,67.401738 C128.062169,67.401738 127.306492,67.2510634 126.298921,66.9999392 L126.047029,67.9039864 C127.104978,68.2053354 127.911034,68.35601 128.817847,68.35601 C130.73223,68.4062348 132.042071,67.3012883 132.042071,65.5434188 L132.042071,65.5434188 Z" id="Shape"></path>
                                <polygon id="Shape" points="135.014403 68.3057851 135.014403 58.6123906 133.855698 58.6123906 133.855698 68.3057851"></polygon>
                                <path d="M141.261339,58.6123906 L139.951497,58.6123906 L136.47538,68.3057851 L137.533329,68.3057851 L138.490521,65.6940933 L142.671937,65.6940933 L143.629128,68.3057851 L144.838213,68.3057851 L141.261339,58.6123906 Z M138.742413,64.7900462 L140.505661,59.5666626 L142.319287,64.7900462 L138.742413,64.7900462 Z" id="Shape"></path>
                                <path d="M7.05299122,64.3882474 L7.05299122,58.6626155 L6.04542105,58.6626155 L6.04542105,64.7900462 C6.04542105,65.6940933 5.99504254,66.1461169 5.79352851,66.5479157 C5.44087894,67.2008386 4.73557982,67.5021877 3.67763114,67.5021877 C2.06551886,67.5021877 1.25946272,66.7990399 1.25946272,65.1918449 L1.25946272,58.6626155 L0.100757017,58.6626155 L0.100757017,64.2877978 C0.100757017,66.1461169 0.151135526,66.5981405 0.604542105,67.2008386 C1.10832719,67.9542112 2.21665438,68.4062348 3.52649561,68.4062348 C4.73557982,68.4062348 5.64239298,68.1048858 6.29731359,67.5021877 C6.9018557,66.8994895 7.05299122,66.3972411 7.05299122,64.3882474 L7.05299122,64.3882474 Z" id="Shape"></path>
                                <polygon id="Shape" points="15.9699873 68.3057851 11.5366785 63.1326264 15.8692303 58.6123906 14.5090105 58.6123906 10.2772158 63.0321767 10.2772158 58.6123906 9.11851008 58.6123906 9.11851008 68.3057851 10.2772158 68.3057851 10.2772158 63.2833009 14.559389 68.3057851"></polygon>
                                <rect id="Rectangle-path" x="22.1665438" y="57.6581186" width="0.488135593" height="11.6521633"></rect>
                                <rect id="Rectangle-path" x="74.5601929" y="57.6581186" width="0.488135593" height="11.6521633"></rect>
                                <path d="M141.110203,44.3987603 L141.110203,32.746597 C141.110203,31.2900766 140.304147,30.0846804 138.339385,30.0846804 C137.231058,30.0846804 136.425002,30.3860294 135.770081,31.0389524 C135.971595,31.5914256 136.021974,32.1438989 136.021974,33.2990702 L136.021974,44.3987603 L132.293964,44.3987603 L132.293964,32.746597 C132.293964,31.3905263 131.941314,29.9842307 129.523146,29.9842307 C128.314062,29.9842307 127.860655,30.18513 127.205735,30.4864791 L127.205735,44.3987603 L123.477725,44.3987603 L123.477725,29.0299587 C124.888323,28.4272606 126.903464,27.6738879 129.72466,27.6738879 C132.042071,27.6738879 133.553427,28.2263612 134.510618,29.0299587 C135.618946,28.2263612 137.079922,27.6738879 139.19582,27.6738879 C143.125343,27.6738879 144.838213,29.9340058 144.838213,32.746597 L144.838213,44.3987603 L141.110203,44.3987603 L141.110203,44.3987603 Z" id="Shape"></path>
                                <path d="M101.814966,44.3987603 L101.814966,32.9977212 C101.814966,31.3905263 101.160046,30.2353549 99.0441482,30.2353549 C97.8854425,30.2353549 97.0793863,30.5367039 96.2733302,31.0389524 L96.2733302,44.3987603 L92.5453206,44.3987603 L92.5453206,22.4505044 L96.2733302,22.4505044 L96.2733302,28.5277103 C97.2305219,28.0756867 98.6411201,27.7743376 99.9509613,27.7743376 C104.031621,27.7743376 105.492597,30.2353549 105.492597,32.6963721 L105.492597,44.3485355 L101.814966,44.3485355 L101.814966,44.3987603 Z" id="Shape"></path>
                                <path d="M56.4239298,25.6648943 C55.0133315,25.6648943 54.2576539,24.7608471 54.2576539,23.7061254 C54.2576539,22.6514037 55.0133315,21.7473566 56.4239298,21.7473566 C57.7841495,21.7473566 58.5902057,22.6514037 58.5902057,23.7061254 C58.5902057,24.7106223 57.7841495,25.6648943 56.4239298,25.6648943 L56.4239298,25.6648943 Z" id="Shape"></path>
                                <path d="M70.2276412,44.3987603 L70.2276412,32.746597 C70.2276412,31.3905263 69.6734776,29.9842307 67.3056877,29.9842307 C66.0966035,29.9842307 65.4920614,30.18513 64.7867622,30.4864791 L64.7867622,44.3987603 L61.0587526,44.3987603 L61.0587526,29.0299587 C62.4693508,28.4272606 64.6860052,27.6738879 67.4568232,27.6738879 C72.3435386,27.6738879 73.9556508,30.0344555 73.9556508,32.6461473 L73.9556508,44.3485355 L70.2276412,44.3485355 L70.2276412,44.3987603 Z" id="Shape"></path>
                                <polygon id="Shape" points="54.559925 44.3987603 54.559925 28.0254618 58.2879346 28.0254618 58.2879346 44.3987603"></polygon>
                                <path d="M49.6732096,44.5996597 C46.4489851,44.5996597 45.1391438,42.7915654 45.1391438,40.1296488 L45.1391438,30.3860294 L43.3255175,30.3860294 L43.3255175,28.0254618 L45.1391438,28.0254618 L45.1391438,24.7106223 L48.8671535,23.6559006 L48.8671535,27.975237 L51.4868359,27.975237 L51.4868359,30.3358046 L48.8671535,30.3358046 L48.8671535,40.0794239 C48.8671535,41.5359443 49.6732096,41.9879679 50.6807798,41.9879679 C50.9830508,41.9879679 51.4364574,41.9879679 51.789107,41.9377431 L51.789107,44.3987603 C51.4364574,44.4489852 50.4792658,44.5996597 49.6732096,44.5996597 L49.6732096,44.5996597 Z" id="Shape"></path>
                                <path d="M39.7486434,44.5996597 C36.5244188,44.5996597 35.2145776,42.7915654 35.2145776,40.1296488 L35.2145776,30.3860294 L33.4009513,30.3860294 L33.4009513,28.0254618 L35.2145776,28.0254618 L35.2145776,24.7106223 L38.9425873,23.6559006 L38.9425873,27.975237 L41.5622697,27.975237 L41.5622697,30.3358046 L38.9425873,30.3358046 L38.9425873,40.0794239 C38.9425873,41.5359443 39.7486434,41.9879679 40.7562136,41.9879679 C41.0584846,41.9879679 41.5118912,41.9879679 41.8645408,41.9377431 L41.8645408,44.3987603 C41.5118912,44.4489852 40.5546995,44.5996597 39.7486434,44.5996597 L39.7486434,44.5996597 Z" id="Shape"></path>
                                <path d="M12.6450057,44.3987603 L4.83633684,31.2398517 C4.33255175,30.4362543 3.97990219,29.6326568 3.57687412,28.6783848 L3.52649561,28.6783848 C3.62725263,29.7331065 3.72800965,30.5869288 3.72800965,31.3403014 L3.72800965,44.3987603 L0.100757017,44.3987603 L0.100757017,23.5052261 L3.92952368,23.5052261 L11.1840289,35.8103123 C11.587057,36.563685 11.9900851,37.2166079 12.3427346,38.1708799 L12.3931132,38.1708799 C12.2923561,37.1161582 12.2923561,36.4130105 12.2923561,35.6596378 L12.2923561,23.4550012 L15.9196088,23.4550012 L15.9196088,44.3485355 L12.6450057,44.3485355 L12.6450057,44.3987603 Z" id="Shape"></path>
                                <path d="M114.409593,27.7241128 C111.840289,27.7241128 109.875528,28.4774854 108.7672,28.929509 L109.623635,31.1896269 C110.580827,30.6873785 112.14256,30.1349052 113.704294,30.1349052 C115.669056,30.1349052 116.928519,30.6873785 116.928519,32.7968218 L116.928519,33.700869 C116.626248,33.6506441 115.517921,33.4497448 114.560729,33.4497448 C110.782341,33.4497448 107.709252,35.4085136 107.709252,39.2758264 C107.709252,42.4399915 109.825149,44.8005591 114.51035,44.8005591 C117.079654,44.8005591 119.145173,44.2983106 120.555771,43.6453877 L120.555771,33.3492951 C120.60615,29.1806332 117.835332,27.7241128 114.409593,27.7241128 L114.409593,27.7241128 Z M116.978897,42.3395418 C116.525491,42.5404412 115.618678,42.7915654 114.762243,42.7915654 C112.797481,42.7915654 111.437261,41.5359443 111.437261,39.2758264 C111.437261,37.1663831 112.595967,35.6596378 114.863,35.6596378 C115.920949,35.6596378 116.575869,35.8605372 116.928519,35.910762 L116.928519,42.3395418 L116.978897,42.3395418 Z" id="Shape"></path>
                                <path d="M84.1321096,27.7241128 C78.8423662,27.7241128 76.2226837,31.0891772 76.2226837,36.3627856 C76.2226837,41.4857195 78.8423662,44.49921 82.8222684,44.49921 C84.2832451,44.49921 85.3915723,44.2480858 86.0464929,43.8965119 L86.0464929,44.9512336 C86.0464929,47.1611266 84.8877872,48.5674222 82.1673478,48.5674222 C80.3537214,48.5674222 79.1950157,48.0651738 78.1874456,47.6633751 L77.1294969,49.9737178 C78.3385811,50.6266407 80.3033429,51.179114 82.8222684,51.179114 C86.9029276,51.179114 89.7241241,48.9189961 89.7241241,44.5996597 L89.7241241,28.8792842 C88.5654184,28.276586 86.6006565,27.7241128 84.1321096,27.7241128 L84.1321096,27.7241128 Z M86.0464929,41.5359443 C85.4923293,41.8372934 84.7870302,42.0884176 83.9305956,42.0884176 C81.3109131,42.0884176 80.1522074,40.1296488 80.1522074,36.3627856 C80.1522074,32.4452479 81.3612916,30.0344555 84.1321096,30.0344555 C84.9381657,30.0344555 85.5427078,30.0846804 86.0968714,30.3860294 L86.0968714,41.5359443 L86.0464929,41.5359443 Z" id="Shape"></path>
                                <path d="M25.2900114,27.7241128 C20.6551886,27.7241128 18.3377772,31.2398517 18.3377772,36.2623359 C18.3377772,41.1843704 20.6551886,44.7503342 25.2900114,44.7503342 C29.9248342,44.7503342 32.2422456,41.2345953 32.2422456,36.2623359 C32.2422456,31.2398517 29.9248342,27.7241128 25.2900114,27.7241128 L25.2900114,27.7241128 Z M25.4915254,42.4399915 C22.9222215,42.4399915 22.5191934,39.1251519 22.5191934,36.2121111 C22.5191934,33.2488454 22.9222215,29.9340058 25.4915254,29.9340058 C28.0608294,29.9340058 28.4638574,33.1986206 28.4638574,36.2121111 C28.5142359,39.1753768 28.0608294,42.4399915 25.4915254,42.4399915 L25.4915254,42.4399915 Z" id="Shape"></path>
                                <path d="M112.49521,2.5112421 C111.13499,2.5112421 110.832719,3.16416505 110.832719,4.16866189 L110.832719,4.67091031 L112.797481,4.67091031 L112.797481,6.67990399 L110.832719,6.67990399 L110.832719,15.8710501 L107.860387,15.8710501 L107.860387,6.67990399 L106.651303,6.67990399 L106.651303,4.67091031 L107.860387,4.67091031 L107.860387,3.86731283 C107.860387,1.60719494 109.321364,0.401798736 111.789911,0.401798736 C112.293696,0.401798736 112.646346,0.401798736 113.099752,0.452023578 L113.099752,2.46101726 L112.49521,2.46101726 L112.49521,2.5112421 Z" id="Shape"></path>
                                <path d="M84.6358947,20.3912859 C82.9734039,20.3912859 81.6635627,20.039712 80.807128,19.5876884 L81.4620486,17.8298189 C82.1169693,18.131168 82.9734039,18.432517 84.2328666,18.432517 C86.0968714,18.432517 86.7014135,17.5786947 86.7014135,16.1221743 L86.7014135,15.4190265 C86.348764,15.6199259 85.5930864,15.9212749 84.3840021,15.9212749 C81.6131842,15.9212749 80.4041,14.5652042 80.4041,12.3050863 L80.4041,4.72113515 L83.376432,4.72113515 L83.376432,12.1544118 C83.376432,13.1589086 83.7290815,13.9625061 85.1900583,13.9625061 C85.8953574,13.9625061 86.348764,13.7616067 86.7014135,13.6109322 L86.7014135,4.72113515 L89.6737456,4.72113515 L89.6737456,15.5194762 C89.6737456,19.0352151 87.5578482,20.3912859 84.6358947,20.3912859 L84.6358947,20.3912859 Z" id="Shape"></path>
                                <path d="M76.6760903,16.0719494 C74.5098144,16.0719494 73.4014872,14.9167781 73.4014872,13.0082341 L73.4014872,6.73012883 L72.1420245,6.73012883 L72.1420245,4.72113515 L73.4014872,4.72113515 L73.4014872,2.41079242 L76.3738193,1.60719494 L76.3738193,4.72113515 L78.1874456,4.72113515 L78.1874456,6.73012883 L76.3738193,6.73012883 L76.3738193,12.7571099 C76.3738193,13.7616067 76.8776043,14.0629558 77.5829035,14.0629558 C77.935553,14.0629558 78.2378241,14.0629558 78.5904736,14.0127309 L78.5904736,15.8710501 C78.3385811,15.9212749 77.734039,16.0719494 76.6760903,16.0719494 L76.6760903,16.0719494 Z" id="Shape"></path>
                                <polygon id="Shape" points="67.1545522 15.9212749 67.1545522 4.72113515 70.1268842 4.72113515 70.1268842 15.9212749"></polygon>
                                <path d="M61.0083741,16.1221743 C59.5473973,16.1221743 58.3886916,15.7706004 57.532257,15.3185768 L58.2375561,13.4602577 C58.8420982,13.7616067 59.5977758,14.1131806 60.5549675,14.1131806 C61.6632947,14.1131806 62.3182153,13.7616067 62.3182153,12.9077844 C62.3182153,12.1041869 61.8144302,11.752613 60.504589,11.2503646 C58.3383131,10.3965423 57.8849065,9.0906964 57.8849065,7.83507535 C57.8849065,6.02698104 59.2451263,4.52023578 61.7136732,4.52023578 C63.0738929,4.52023578 64.1318416,4.87180967 64.8875193,5.32383325 L64.0814631,7.08170272 C63.7288136,6.88080335 62.9227574,6.47900462 62.0663228,6.47900462 C61.0587526,6.47900462 60.5549675,6.9310282 60.5549675,7.63417598 C60.5549675,8.43777346 61.3610236,8.73912251 62.3685938,9.14092124 C64.6356267,9.99474356 65.1394118,11.3005895 65.1394118,12.706885 C65.1394118,14.6656539 63.476921,16.1221743 61.0083741,16.1221743 L61.0083741,16.1221743 Z" id="Shape"></path>
                                <path d="M56.5750653,6.73012883 C56.3735513,6.67990399 55.7186307,6.5794543 55.2148456,6.5794543 C54.7110605,6.5794543 54.2576539,6.62967914 53.9553829,6.73012883 L53.9553829,15.9212749 L50.9830508,15.9212749 L50.9830508,5.37405809 C51.4364574,5.17315873 53.1493267,4.57046062 55.1140886,4.57046062 C56.2727943,4.57046062 56.5750653,4.62068546 56.9780934,4.72113515 L56.5750653,6.73012883 L56.5750653,6.73012883 Z" id="Shape"></path>
                                <path d="M25.3403899,3.31483957 C24.2320627,3.31483957 23.7282776,2.66191663 23.7282776,1.85831915 C23.7282776,1.05472168 24.2320627,0.401798736 25.3403899,0.401798736 C26.3479601,0.401798736 26.9525022,1.05472168 26.9525022,1.85831915 C26.9525022,2.66191663 26.3479601,3.31483957 25.3403899,3.31483957 L25.3403899,3.31483957 Z" id="Shape"></path>
                                <path d="M34.9626851,15.9212749 L32.1414886,15.9212749 L28.3127219,4.72113515 L31.486568,4.72113515 L32.9475447,9.99474356 C33.0986802,10.496992 33.4513298,11.8028379 33.6024653,12.4557608 L33.6528438,12.4557608 C33.7032223,11.8028379 34.1062504,10.496992 34.2573859,9.99474356 L35.7687412,4.72113515 L38.7410732,4.72113515 L34.9626851,15.9212749 L34.9626851,15.9212749 Z" id="Shape"></path>
                                <polygon id="Shape" points="23.7786561 15.9212749 23.7786561 4.72113515 26.7509881 4.72113515 26.7509881 15.9212749"></polygon>
                                <path d="M68.7162859,3.31483957 C67.6079587,3.31483957 67.1041736,2.66191663 67.1041736,1.85831915 C67.1041736,1.05472168 67.6079587,0.401798736 68.7162859,0.401798736 C69.7238561,0.401798736 70.3283982,1.05472168 70.3283982,1.85831915 C70.2780197,2.66191663 69.7238561,3.31483957 68.7162859,3.31483957 L68.7162859,3.31483957 Z" id="Shape"></path>
                                <path d="M18.6904267,15.9212749 L18.6904267,8.03597472 C18.6904267,7.23237725 18.3377772,6.42877978 16.8768004,6.42877978 C16.1715013,6.42877978 15.7180947,6.5794543 15.3654452,6.73012883 L15.3654452,15.9212749 L12.3931132,15.9212749 L12.3931132,5.37405809 C13.6525759,4.87180967 15.1639311,4.52023578 17.027936,4.52023578 C20.4536745,4.52023578 21.6627588,6.17765557 21.6627588,8.08619956 L21.6627588,15.9714998 L18.6904267,15.9714998 L18.6904267,15.9212749 Z" id="Shape"></path>
                                <path d="M5.13860789,16.1221743 C2.21665438,16.1221743 0.0503785087,14.615429 0.0503785087,11.6521633 L0.0503785087,1.65741979 L3.17384605,1.65741979 L3.17384605,11.6521633 C3.17384605,13.0082341 3.87914517,13.7616067 5.13860789,13.7616067 C6.3476921,13.7616067 7.10336973,13.0584589 7.10336973,11.6521633 L7.10336973,1.65741979 L10.2268373,1.65741979 L10.2268373,11.6521633 C10.2268373,14.615429 8.0605614,16.1221743 5.13860789,16.1221743 L5.13860789,16.1221743 Z" id="Shape"></path>
                                <path d="M100.555503,4.47001094 C97.2305219,4.47001094 95.6184096,6.9310282 95.6184096,10.2458678 C95.6184096,13.661157 97.2305219,16.1221743 100.555503,16.1221743 C103.880485,16.1221743 105.492597,13.661157 105.492597,10.2458678 C105.492597,6.9310282 103.880485,4.47001094 100.555503,4.47001094 L100.555503,4.47001094 Z M100.555503,14.1634054 C99.0441482,14.1634054 98.6914986,12.405536 98.6914986,10.2458678 C98.6914986,8.1364244 99.0441482,6.42877978 100.555503,6.42877978 C102.066859,6.42877978 102.469887,8.18664925 102.469887,10.2458678 C102.419508,12.4557608 102.066859,14.1634054 100.555503,14.1634054 L100.555503,14.1634054 Z" id="Shape"></path>
                                <path d="M49.0686675,10.0449684 C49.0686675,6.47900462 47.2550412,4.47001094 44.1819522,4.47001094 C41.0584846,4.47001094 39.1944798,6.62967914 39.1944798,10.2458678 C39.1944798,14.0127309 41.3103772,16.1221743 44.6353587,16.1221743 C46.3986066,16.1221743 47.7084478,15.7706004 48.6152609,15.268352 L47.9099618,13.3095831 C47.1039057,13.661157 46.247471,13.9625061 44.9376298,13.9625061 C43.5774101,13.9625061 42.3179473,13.359808 42.1164333,11.2001398 L49.0686675,11.2001398 L49.0686675,10.0449684 L49.0686675,10.0449684 Z M46.247471,9.34182061 L42.0156763,9.34182061 C42.0156763,7.18215241 42.8721109,6.37855493 44.1315737,6.37855493 C45.2902794,6.37855493 46.247471,7.08170272 46.247471,9.19114609 L46.247471,9.34182061 L46.247471,9.34182061 Z" id="Shape"></path>
                            </g>
                            <rect id="Rectangle-path" fill="url(#radialGradient-1)" x="0" y="0.150674526" width="94.0566758" height="93.76978"></rect>
                            <g id="Castle" transform="translate(23.174114, 18.583192)" fill="#FFFFFF">
                                <g id="Group" transform="translate(0.000000, 0.000000)">
                                    <path d="M40.3531855,4.11843704 C38.2372881,2.96326568 36.2221478,2.05921852 33.5017083,1.40629558 L33.5017083,6.98125304 C35.9198767,7.5337263 38.2372881,8.38754861 40.3531855,9.34182061 L40.3531855,4.11843704 Z" id="Shape"></path>
                                    <path d="M31.0331614,22.4002795 C30.3782408,22.4002795 29.8240772,22.9527528 29.8240772,23.6559006 L29.4714276,35.0569397 L32.6956522,35.0569397 L32.2926241,23.6559006 C32.2422456,22.902528 31.788839,22.4002795 31.0331614,22.4002795 Z" id="Shape"></path>
                                    <path d="M33.9047364,53.7908058 C30.4789978,53.7908058 28.0608294,52.9872083 24.9373618,51.4302382 C21.6123803,49.7225936 17.8843706,48.2660732 13.1487908,48.2660732 C8.71548201,48.2660732 3.97990219,49.8230433 0.352649561,55.1971014 C4.68520131,52.5351847 8.6651035,51.6813624 12.0404636,51.6813624 C15.6173377,51.6813624 18.3881557,52.5854096 21.1589737,54.04193 C24.3328197,55.6993498 27.0532592,56.8545211 31.0331614,56.8545211 C34.861928,56.8545211 39.1944798,55.3980007 42.9224894,50.5261911 C39.9501574,52.9872083 36.7763114,53.7908058 33.9047364,53.7908058 Z" id="Shape"></path>
                                    <path d="M14.9624171,46.407754 C17.9851276,46.407754 21.5116232,47.2615763 25.4915254,49.4212445 L25.4915254,38.1708799 L23.8290346,36.1116614 L23.8290346,20.4415107 L27.0532592,15.4692513 L25.6930395,20.2406113 C26.5998526,20.1401616 27.5066658,20.039712 28.5142359,20.039712 C31.688082,20.039712 34.6100355,20.5921852 37.0785824,21.5464572 L40.302807,18.5831915 L40.302807,10.5472168 C38.1869096,9.59294482 35.8694982,8.78934735 33.4513298,8.18664925 C31.9903531,7.83507535 30.4286193,7.58395114 28.816507,7.38305177 L28.816507,0.401798736 C27.1036377,0.150674526 25.3403899,0.050224842 23.5267636,0.050224842 C21.8138943,0.050224842 20.101025,0.150674526 18.4889127,0.351573894 L18.4889127,6.98125304 C16.9271789,7.18215241 15.3654452,7.48350146 13.9044684,7.83507535 L13.9044684,1.30584589 C11.284786,2.00899368 8.81623903,3.06371536 6.54920614,4.31933641 L6.54920614,17.9302686 L9.67267368,20.8935343 L8.76586052,36.1618862 L6.24693508,38.6731283 L6.24693508,47.5127005 L7.10336973,48.4167477 C9.2192671,47.3118012 11.8389496,46.407754 14.9624171,46.407754 Z M14.5090105,23.6559006 C14.5090105,22.9527528 15.0631741,22.4002795 15.7180947,22.4002795 C16.3730153,22.4002795 16.9271789,22.9527528 16.9271789,23.6559006 L17.330207,35.0569397 L14.1059824,35.0569397 L14.5090105,23.6559006 Z" id="Shape"></path>
                                </g>
                            </g>
                        </g>
                    </g>
                </g>
            </g>
        </g>
    </g>
</svg>